<svg width="35" height="31" viewBox="0 0 35 31" fill="none" xmlns="http://www.w3.org/2000/svg">
<g id="Group">
<path id="Vector" d="M31.5 23.5294H3.49999C3.28439 23.5294 3.08069 23.6338 2.94839 23.8125C2.81609 23.9904 2.76849 24.2235 2.82099 24.4426L4.22099 30.325C4.29869 30.6529 4.57869 30.8823 4.89999 30.8823H30.1C30.4213 30.8823 30.7006 30.6529 30.779 30.325L32.179 24.4426C32.2315 24.2228 32.1846 23.9904 32.0516 23.8125C31.9193 23.6338 31.7156 23.5294 31.5 23.5294ZM29.5533 29.4118H5.44669L4.39669 25H30.6033L29.5533 29.4118Z" fill="#F9F9F9"/>
<path id="Vector_2" d="M34.3 20.5882H0.7C0.3136 20.5882 0 20.9169 0 21.3235C0 21.7301 0.3136 22.0588 0.7 22.0588H34.3C34.6871 22.0588 35 21.7301 35 21.3235C35 20.9169 34.6871 20.5882 34.3 20.5882Z" fill="#F9F9F9"/>
<path id="Vector_3" d="M3.49999 16.1765C5.00429 16.1765 5.72669 16.7831 6.56249 17.486C7.47249 18.2507 8.50359 19.1176 10.4993 19.1176C12.4943 19.1176 13.5254 18.2507 14.4354 17.4853C15.2712 16.7831 15.9929 16.1765 17.4965 16.1765C19.0015 16.1765 19.7239 16.7831 20.5597 17.486C21.4704 18.2507 22.5022 19.1176 24.4979 19.1176C26.4936 19.1176 27.5254 18.2507 28.4361 17.486C29.2719 16.7831 29.995 16.1765 31.5 16.1765C31.8871 16.1765 32.2 15.8471 32.2 15.4412C32.2 15.0353 31.8871 14.7059 31.5 14.7059C29.5036 14.7059 28.4718 15.5728 27.5611 16.3375C26.7253 17.0404 26.0022 17.6471 24.4979 17.6471C22.9936 17.6471 22.2705 17.0404 21.4347 16.3375C20.524 15.5728 19.4922 14.7059 17.4965 14.7059C15.5015 14.7059 14.4704 15.5728 13.5604 16.3375C12.7246 17.0404 12.0029 17.6471 10.4993 17.6471C8.99499 17.6471 8.27259 17.0404 7.43679 16.3375C6.52679 15.5728 5.49569 14.7059 3.49999 14.7059C3.11359 14.7059 2.79999 15.0353 2.79999 15.4412C2.79999 15.8471 3.11359 16.1765 3.49999 16.1765Z" fill="#F9F9F9"/>
<path id="Vector_4" d="M3.49999 13.2353H31.5C31.8871 13.2353 32.2 12.9059 32.2 12.5V11.0294C32.2 4.94779 25.6053 0 17.5 0C9.39399 0 2.79999 4.94779 2.79999 11.0294V12.5C2.79999 12.9059 3.11359 13.2353 3.49999 13.2353ZM4.19999 11.0294C4.19999 5.75882 10.1661 1.47059 17.5 1.47059C24.8339 1.47059 30.8 5.75882 30.8 11.0294V11.7647H4.19999V11.0294Z" fill="#F9F9F9"/>
</g>
</svg>
