<svg width="24" height="24" viewBox="0 0 24 24" fill="none" xmlns="http://www.w3.org/2000/svg">
<g id="streamline-emojis:hamburger-3" clip-path="url(#clip0_333_83)">
<path id="Vector" opacity="0.15" d="M1.88501 22.18C1.88501 22.3975 2.95069 22.606 4.84762 22.7598C6.74455 22.9136 9.31734 23 12 23C14.6827 23 17.2555 22.9136 19.1524 22.7598C21.0493 22.606 22.115 22.3975 22.115 22.18C22.115 21.9625 21.0493 21.7539 19.1524 21.6002C17.2555 21.4464 14.6827 21.36 12 21.36C9.31734 21.36 6.74455 21.4464 4.84762 21.6002C2.95069 21.7539 1.88501 21.9625 1.88501 22.18Z" fill="#45413C"/>
<path id="Vector_2" d="M21.5701 15.735V18.195C21.5701 20.16 17.2851 21.75 12.0001 21.75C6.71505 21.75 2.43005 20.16 2.43005 18.195V15.735H21.5701Z" fill="#DEBB7E"/>
<path id="Vector_3" d="M2.43005 16.83C2.43005 18.79 6.71505 20.385 12.0001 20.385C17.2851 20.385 21.5701 18.79 21.5701 16.83V15.735H2.43005V16.83Z" fill="#B89558"/>
<path id="Vector_4" d="M21.5701 15.735V18.195C21.5701 20.16 17.2851 21.75 12.0001 21.75C6.71505 21.75 2.43005 20.16 2.43005 18.195V15.735H21.5701Z" stroke="#45413C" stroke-width="0.416667" stroke-linecap="round" stroke-linejoin="round"/>
<path id="Vector_5" d="M12 19C23.79 19 23.5 15.175 22.115 13C20.75 11.09 17.585 9.45001 12 9.45001C6.41504 9.45001 3.25004 11.09 1.88504 13C0.500037 15.19 0.210037 19 12 19Z" fill="#BF8256" stroke="#45413C" stroke-width="0.416667" stroke-linecap="round" stroke-linejoin="round"/>
<path id="Vector_6" d="M21.57 11.91C21.57 11.91 23.21 12.455 23.21 14.095C23.21 15.735 21.02 14.37 20.21 14.915C19.4 15.46 20.005 16.715 18.845 17.105C17.205 17.65 16.345 16.07 15.29 16.285C13.925 16.555 14.47 17.925 12.01 17.925C9.55005 17.925 10.095 16.555 8.73005 16.285C7.65505 16.07 6.81505 17.65 5.17505 17.105C4.00005 16.715 4.62005 15.465 3.80005 14.915C2.98005 14.365 0.800049 15.735 0.800049 14.095C0.800049 12.455 2.44005 11.91 2.44005 11.91H21.57Z" fill="#6DD627" stroke="#45413C" stroke-width="0.416667" stroke-linecap="round" stroke-linejoin="round"/>
<path id="Vector_7" d="M21.295 13.57H16.645V15.19C16.645 15.4804 16.7604 15.7589 16.9657 15.9643C17.1711 16.1696 17.4496 16.285 17.74 16.285H18.285V17.5C18.3025 17.742 18.411 17.9684 18.5886 18.1336C18.7663 18.2989 18.9999 18.3908 19.2425 18.3908C19.4851 18.3908 19.7188 18.2989 19.8964 18.1336C20.074 17.9684 20.1825 17.742 20.2 17.5V15.45C20.4904 15.45 20.7689 15.3346 20.9743 15.1293C21.1797 14.9239 21.295 14.6454 21.295 14.355V13.57Z" fill="#FFE500" stroke="#45413C" stroke-width="0.416667" stroke-linecap="round" stroke-linejoin="round"/>
<path id="Vector_8" d="M12 15.19C23.79 15.19 23.5 11.36 22.115 9.18999C20.75 7.25999 17.585 5.62 12 5.62C6.41504 5.62 3.25004 7.26 1.88504 9.175C0.500037 11.36 0.210037 15.19 12 15.19Z" fill="#BF8256" stroke="#45413C" stroke-width="0.416667" stroke-linecap="round" stroke-linejoin="round"/>
<path id="Vector_9" d="M21.57 8.08002C21.57 8.08002 23.21 8.63002 23.21 10.27C23.21 11.91 21.02 10.54 20.21 11.09C19.4 11.64 20.005 12.89 18.845 13.275C17.205 13.82 16.345 12.24 15.29 12.455C13.925 12.73 14.47 14.095 12.01 14.095C9.55005 14.095 10.095 12.73 8.73005 12.455C7.65505 12.24 6.81505 13.82 5.17505 13.275C4.00005 12.89 4.62005 11.635 3.80005 11.09C2.98005 10.545 0.800049 11.91 0.800049 10.27C0.800049 8.63002 2.44005 8.08002 2.44005 8.08002H21.57Z" fill="#6DD627" stroke="#45413C" stroke-width="0.416667" stroke-linecap="round" stroke-linejoin="round"/>
<path id="Vector_10" d="M3.525 9.17498C3.525 9.17498 2.615 11.065 4.62 11.635C6.535 12.18 8.445 10.54 10.085 10.54C11.725 10.54 13.26 12.96 15.28 12.455C17.465 11.91 16.375 10.815 17.74 10.27C19.105 9.72498 23.74 11.635 21.02 8.35498L3.525 9.17498Z" fill="#FF6242" stroke="#45413C" stroke-width="0.416667" stroke-linecap="round" stroke-linejoin="round"/>
<path id="Vector_11" d="M13.365 10.815H8.71997V12.18C8.71997 12.4704 8.83534 12.7489 9.04069 12.9543C9.24604 13.1596 9.52456 13.275 9.81497 13.275H10.36V14.5C10.3505 14.6316 10.3682 14.7637 10.412 14.8881C10.4558 15.0125 10.5248 15.1266 10.6146 15.2231C10.7044 15.3197 10.8132 15.3967 10.9341 15.4494C11.0551 15.5021 11.1856 15.5292 11.3175 15.5292C11.4494 15.5292 11.5799 15.5021 11.7008 15.4494C11.8217 15.3967 11.9305 15.3197 12.0203 15.2231C12.1102 15.1266 12.1792 15.0125 12.223 14.8881C12.2668 14.7637 12.2845 14.6316 12.275 14.5V12.45C12.5645 12.4487 12.8418 12.3327 13.046 12.1275C13.2503 11.9223 13.365 11.6446 13.365 11.355V10.815Z" fill="#FFE500" stroke="#45413C" stroke-width="0.416667" stroke-linecap="round" stroke-linejoin="round"/>
<path id="Vector_12" d="M21.5701 7.81C21.5701 9.77 17.2851 11.36 12.0001 11.36C6.71505 11.36 2.43005 9.77 2.43005 7.81C2.43005 7.81 3.00005 1.5 12.0001 1.5C21.0001 1.5 21.5701 7.81 21.5701 7.81Z" fill="#F0D5A8"/>
<path id="Vector_13" d="M12.0001 9.44997C7.50005 9.44997 3.69505 8.28497 2.69505 6.71997C2.56703 7.07249 2.47816 7.43802 2.43005 7.80997C2.43005 9.76997 6.71505 11.36 12.0001 11.36C17.2851 11.36 21.5701 9.76997 21.5701 7.80997C21.5219 7.43802 21.4331 7.07249 21.3051 6.71997C20.3051 8.28497 16.5001 9.44997 12.0001 9.44997Z" fill="#DEBB7E"/>
<path id="Vector_14" d="M21.5701 7.81C21.5701 9.77 17.2851 11.36 12.0001 11.36C6.71505 11.36 2.43005 9.77 2.43005 7.81C2.43005 7.81 3.00005 1.5 12.0001 1.5C21.0001 1.5 21.5701 7.81 21.5701 7.81Z" stroke="#45413C" stroke-width="0.416667" stroke-linecap="round" stroke-linejoin="round"/>
<path id="Vector_15" d="M6.38999 4.41501C6.25009 4.45281 6.13093 4.54463 6.05873 4.67028C5.98653 4.79593 5.9672 4.94511 6.00499 5.08501C6.04279 5.22491 6.13461 5.34407 6.26026 5.41627C6.38591 5.48848 6.53509 5.50781 6.67499 5.47001L7.20499 5.33001C7.27427 5.3113 7.33917 5.27912 7.39601 5.23533C7.45285 5.19153 7.50051 5.13696 7.53626 5.07475C7.57201 5.01253 7.59515 4.94389 7.60437 4.87272C7.61359 4.80156 7.60871 4.72928 7.58999 4.66001C7.57128 4.59074 7.53911 4.52583 7.49531 4.46899C7.45151 4.41216 7.39695 4.3645 7.33473 4.32875C7.27252 4.293 7.20387 4.26985 7.13271 4.26063C7.06155 4.25141 6.98927 4.2563 6.91999 4.27501L6.38999 4.41501ZM9.58999 5.89501C9.53032 6.02762 9.52577 6.1785 9.57734 6.31447C9.62891 6.45043 9.73239 6.56034 9.86499 6.62001C9.9976 6.67969 10.1485 6.68424 10.2844 6.63266C10.4204 6.58109 10.5303 6.47762 10.59 6.34501L10.815 5.84501C10.8449 5.77935 10.8615 5.70845 10.864 5.63635C10.8665 5.56426 10.8547 5.49238 10.8294 5.42483C10.8041 5.35727 10.7657 5.29536 10.7165 5.24263C10.6673 5.1899 10.6082 5.14739 10.5425 5.11751C10.4768 5.08764 10.4059 5.07099 10.3338 5.06851C10.2617 5.06604 10.1899 5.07779 10.1223 5.10309C10.0548 5.1284 9.99284 5.16676 9.94011 5.21599C9.88739 5.26522 9.84487 5.32435 9.81499 5.39001L9.58999 5.89501ZM17.61 4.41501C17.6793 4.43373 17.7442 4.4659 17.801 4.5097C17.8579 4.5535 17.9055 4.60806 17.9413 4.67028C17.977 4.73249 18.0002 4.80114 18.0094 4.8723C18.0186 4.94346 18.0137 5.01574 17.995 5.08501C17.9763 5.15428 17.9441 5.21919 17.9003 5.27603C17.8565 5.33287 17.8019 5.38052 17.7397 5.41627C17.6775 5.45202 17.6089 5.47517 17.5377 5.48439C17.4665 5.49361 17.3943 5.48873 17.325 5.47001L16.795 5.33001C16.7257 5.3113 16.6608 5.27912 16.604 5.23533C16.5471 5.19153 16.4995 5.13696 16.4637 5.07475C16.428 5.01253 16.4048 4.94389 16.3956 4.87272C16.3864 4.80156 16.3913 4.72928 16.41 4.66001C16.4287 4.59074 16.4609 4.52583 16.5047 4.46899C16.5485 4.41216 16.603 4.3645 16.6653 4.32875C16.7275 4.293 16.7961 4.26985 16.8673 4.26063C16.9384 4.25141 17.0107 4.2563 17.08 4.27501L17.61 4.41501ZM14.41 5.89501C14.4395 5.96067 14.4559 6.03151 14.458 6.10348C14.4602 6.17545 14.4482 6.24714 14.4226 6.31447C14.3971 6.38179 14.3586 6.44342 14.3092 6.49585C14.2599 6.54827 14.2007 6.59046 14.135 6.62001C14.0693 6.64956 13.9985 6.66589 13.9265 6.66806C13.8546 6.67023 13.7829 6.6582 13.7155 6.63266C13.6482 6.60713 13.5866 6.56858 13.5342 6.51923C13.4817 6.46987 13.4395 6.41067 13.41 6.34501L13.185 5.84501C13.1551 5.77935 13.1385 5.70845 13.136 5.63635C13.1335 5.56426 13.1453 5.49238 13.1706 5.42483C13.2217 5.28839 13.3249 5.17785 13.4575 5.11751C13.5232 5.08764 13.5941 5.07099 13.6662 5.06851C13.7382 5.06604 13.8101 5.07779 13.8777 5.10309C14.0141 5.1542 14.1247 5.2574 14.185 5.39001L14.41 5.89501Z" fill="#DEBB7E" stroke="#45413C" stroke-width="0.416667" stroke-linecap="round" stroke-linejoin="round"/>
</g>
<defs>
<clipPath id="clip0_333_83">
<rect width="24" height="24" fill="white"/>
</clipPath>
</defs>
</svg>
